<svg viewBox="0 0 512 512" xmlns="http://www.w3.org/2000/svg"><path d="M512 15v482c0 8.28-6.72 15-15 15h-47l-5-2V3l5-3h47c8.28 0 15 6.72 15 15z" fill="#b2d7f3"/><path d="M450 0v512h-76v-5c5.51 0 10-4.49 10-10V15c0-5.51-4.49-10-10-10V0z" fill="#d6e9f8"/><path d="M374 0H44c-8.284 0-15 6.716-15 15v482c0 8.284 6.716 15 15 15h330c8.284 0 15-6.716 15-15V15c0-8.284-6.716-15-15-15z" fill="#f964ab"/><path d="M389 15v482c0 8.28-6.72 15-15 15H209V0h165c8.28 0 15 6.72 15 15z" fill="#e23485"/><g fill="#d6e9f8"><path d="M15 91h38c8.284 0 15-6.716 15-15s-6.716-15-15-15H15C6.716 61 0 67.716 0 76s6.716 15 15 15zM53 121H15c-8.284 0-15 6.716-15 15s6.716 15 15 15h38c8.284 0 15-6.716 15-15s-6.716-15-15-15zM53 181H15c-8.284 0-15 6.716-15 15s6.716 15 15 15h38c8.284 0 15-6.716 15-15s-6.716-15-15-15zM53 241H15c-8.284 0-15 6.716-15 15s6.716 15 15 15h38c8.284 0 15-6.716 15-15s-6.716-15-15-15zM53 301H15c-8.284 0-15 6.716-15 15s6.716 15 15 15h38c8.284 0 15-6.716 15-15s-6.716-15-15-15zM53 361H15c-8.284 0-15 6.716-15 15s6.716 15 15 15h38c8.284 0 15-6.716 15-15s-6.716-15-15-15zM53 421H15c-8.284 0-15 6.716-15 15s6.716 15 15 15h38c8.284 0 15-6.716 15-15s-6.716-15-15-15z"/></g><path d="M164 182h90c8.284 0 15-6.716 15-15s-6.716-15-15-15h-90c-8.284 0-15 6.716-15 15s6.716 15 15 15z" fill="#e23485"/><path d="M269 167c0 8.28-6.72 15-15 15h-45v-30h45c8.28 0 15 6.72 15 15z" fill="#d11569"/><path d="M119 242h180c8.284 0 15-6.716 15-15s-6.716-15-15-15H119c-8.284 0-15 6.716-15 15s6.716 15 15 15z" fill="#e23485"/><path d="M314 227c0 8.28-6.72 15-15 15h-90v-30h90c8.28 0 15 6.72 15 15z" fill="#d11569"/><path d="M299 272H119c-8.284 0-15 6.716-15 15s6.716 15 15 15h180c8.284 0 15-6.716 15-15s-6.716-15-15-15z" fill="#e23485"/><path d="M314 287c0 8.28-6.72 15-15 15h-90v-30h90c8.28 0 15 6.72 15 15z" fill="#d11569"/><path d="M299 332H119c-8.284 0-15 6.716-15 15s6.716 15 15 15h180c8.284 0 15-6.716 15-15s-6.716-15-15-15z" fill="#e23485"/><path d="M314 347c0 8.28-6.72 15-15 15h-90v-30h90c8.28 0 15 6.72 15 15z" fill="#d11569"/></svg>