<svg viewBox="0 0 512.001 512" xmlns="http://www.w3.org/2000/svg">
<path style="fill:#000" d="M20.91 510.79c14.258-6.114 132.082-56.61 146.332-62.716.012-.008.024-.012.031-.015 1.313-.657 4.067-1.332 6.825-4.094L507.605 110.46c5.86-5.86 5.86-15.356 0-21.215L422.754 4.395A15.003 15.003 0 0 0 412.148 0a15.003 15.003 0 0 0-10.605 4.395L68.031 337.902c-2.804 2.805-3.441 5.524-4.082 6.805l-.023.059L1.215 491.09a14.997 14.997 0 0 0 3.18 16.515 14.998 14.998 0 0 0 16.515 3.184zm61.98-134.126 52.446 52.445-75.305 32.274-9.414-9.414zM348.509 99.852l63.64 63.64-250.003 250-63.637-63.637zm63.64-63.637 63.641 63.637-42.43 42.425-63.636-63.636zm0 0"/></svg>