<svg viewBox="0 0 512 512" xmlns="http://www.w3.org/2000/svg"><switch><g><path d="M453.1 58.9c-78.4-78.4-206-78.4-284.4 0-38 38-58.9 88.5-58.9 142.2 0 45.3 14.9 88.3 42.3 123.5L7.3 469.3c-9.8 9.8-9.8 25.6 0 35.4 4.9 4.9 11.3 7.3 17.7 7.3s12.8-2.4 17.7-7.3l144.8-144.8C223.7 388 267.3 402 310.9 402c51.5 0 103-19.6 142.2-58.8 38-38 58.9-88.5 58.9-142.2S491.1 96.9 453.1 58.9zm-35.4 249c-58.9 58.9-154.8 58.9-213.7 0-28.5-28.5-44.3-66.5-44.3-106.8s15.7-78.3 44.3-106.8c29.5-29.5 68.2-44.2 106.8-44.2 38.7 0 77.4 14.7 106.8 44.2 28.5 28.5 44.3 66.5 44.3 106.8.1 40.3-15.6 78.2-44.2 106.8z"/><path d="M310.9 90.6c-60.9 0-110.4 49.5-110.4 110.4 0 13.8 11.2 25 25 25s25-11.2 25-25c0-33.3 27.1-60.4 60.4-60.4 13.8 0 25-11.2 25-25s-11.2-25-25-25z"/></g></switch></svg>